<?xml version="1.0" standalone="no"?><!DOCTYPE svg PUBLIC "-//W3C//DTD SVG 1.1//EN" "http://www.w3.org/Graphics/SVG/1.1/DTD/svg11.dtd"><svg t="1679159775759" class="icon" viewBox="0 0 1024 1024" version="1.1" xmlns="http://www.w3.org/2000/svg" p-id="3608" xmlns:xlink="http://www.w3.org/1999/xlink" width="200" height="200"><path d="M741.275991 1023.99996a95.405996 95.405996 0 0 1-44.847998-11.156c-72.059997-38.169999-118.829995-102.365996-152.981994-149.239994-10.024-13.763999-23.001999-31.573999-31.449999-40.247998-8.45 8.676-21.425999 26.485999-31.451999 40.247998-34.149999 46.875998-80.915997 111.071996-152.979994 149.239994-24.165999 12.8-52.161998 14.649999-78.833997 5.208-28.949999-10.248-52.493998-32.395999-64.597997-60.767997-20.537999-48.141998-7.124-96.863996 35.011998-127.151995 9.776-7.028 20.225999-14.911999 30.071999-22.41-36.623999 9.622-79.561997 17.083999-110.335995 17.084-59.275998 0-107.497996-48.221998-107.497996-107.497996s48.221998-107.497996 107.497996-107.497996c55.517998 0 121.517995-13.035999 140.259994-49.617998 11.296-22.049999-0.176-45.905998-11.789999-62.031997-42.201998-58.607998-64.509997-123.963995-64.509998-188.999993C202.838012 138.687995 341.526007 0 511.998 0c170.469993 0 309.157988 138.687995 309.157988 309.157988 0 65.035997-22.307999 130.391995-64.509998 188.999993-11.612 16.127999-23.085999 39.979998-11.789999 62.031997 18.739999 36.585999 84.741997 49.617998 140.259994 49.617998 59.275998 0 107.497996 48.221998 107.497996 107.497996s-48.223998 107.497996-107.497996 107.497996c-30.775999 0-73.713997-7.462-110.335995-17.084 9.84 7.498 20.291999 15.381999 30.069999 22.412 42.137998 30.287999 55.549998 79.009997 35.011998 127.151995-12.104 28.371999-35.647999 50.519998-64.597997 60.767997-11.222 3.976-22.679999 5.948-33.987999 5.948" fill="#61AAF1" p-id="3609"></path><path d="M511.998 0v823.355968c8.448 8.676 21.425999 26.485999 31.449999 40.247998 34.149999 46.875998 80.917997 111.071996 152.981994 149.239994 13.999999 7.414 29.279999 11.156 44.847998 11.156 11.308 0 22.765999-1.972 33.987999-5.946 28.947999-10.248 52.493998-32.395999 64.597997-60.767997 6.378-14.949999 9.482-29.955999 9.468-44.447999-0.032-32.175999-15.427999-61.819998-44.479998-82.703996-9.778-7.03-20.227999-14.913999-30.069999-22.412 36.621999 9.622 79.559997 17.083999 110.335995 17.084 59.275998 0 107.497996-48.221998 107.497996-107.497996s-48.223998-107.497996-107.497996-107.497996c-55.519998 0-121.519995-13.035999-140.259994-49.617998-3.264-6.374-4.626-12.899999-4.636-19.343999-0.016-15.851999 8.168-31.221999 16.423999-42.687998 42.201998-58.607998 64.509997-123.963995 64.509998-188.999993C821.157988 138.687995 682.467993 0 511.998 0" fill="#487EB5" p-id="3610"></path><path d="M366.536006 344.807987c0-23.023999 18.455999-41.669998 41.135998-41.669999 22.709999 0 41.163998 18.645999 41.163998 41.669999 0 23.019999-18.453999 41.683998-41.163998 41.683998-22.679999-0.002-41.135998-18.663999-41.135998-41.683998zM657.457994 344.807987c0-23.193999-18.575999-41.995998-41.447998-41.995999-22.899999 0-41.475998 18.801999-41.475998 41.995999 0 23.193999 18.575999 41.995998 41.475998 41.995998 22.873999-0.002 41.447998-18.801999 41.447998-41.995998z" fill="#333333" p-id="3611"></path></svg>